<svg xmlns="http://www.w3.org/2000/svg" width="15" height="18" viewBox="0 0 15 18">
    <path fill="#D5664B" fill-rule="evenodd" d="M6.75 1.5c-.414 0-.75.336-.75.75V3h3v-.75c0-.414-.336-.75-.75-.75h-1.5zM10.5 3v-.75C10.5 1.007 9.493 0 8.25 0h-1.5C5.507 0 4.5 1.007 4.5 2.25V3H.75C.336 3 0 3.336 0 3.75s.336.75.75.75h.079l1.277 11.498C2.233 17.138 3.196 18 4.343 18h6.315c1.146 0 2.11-.862 2.235-2.002L14.171 4.5h.079c.414 0 .75-.336.75-.75S14.664 3 14.25 3H10.5zm2.162 1.5H2.338l1.259 11.332c.043.38.364.668.746.668h6.315c.381 0 .702-.287.745-.668L12.663 4.5zM6 6.75c.414 0 .75.336.75.75v6c0 .414-.336.75-.75.75s-.75-.336-.75-.75v-6c0-.414.336-.75.75-.75zm3 0c.414 0 .75.336.75.75v6c0 .414-.336.75-.75.75s-.75-.336-.75-.75v-6c0-.414.336-.75.75-.75z"/>
</svg>
